<svg width="32" height="32" viewBox="0 0 32 32" fill="none" xmlns="http://www.w3.org/2000/svg">
<g clip-path="url(#clip0_202_178)">
<circle cx="16" cy="16" r="16" fill="white"/>
<path d="M23.375 12.4759H22.4525L20.54 6.70469C20.3817 6.22882 20.094 5.81761 19.7158 5.52654C19.3376 5.23547 18.8871 5.07853 18.425 5.0769H16.625C16.0062 5.0769 15.5 5.63183 15.5 6.31008C15.5 6.98832 16.0062 7.54325 16.625 7.54325H18.425L20.0675 12.4759H14.6562L14.2513 11.2428H14.3525C14.9712 11.2428 15.4775 10.6878 15.4775 10.0096C15.4775 9.33135 14.9712 8.77642 14.3525 8.77642H11C10.3812 8.77642 9.875 9.33135 9.875 10.0096C9.875 10.6878 10.3812 11.2428 11 11.2428H11.8438L13.8912 17.4086H13.1375C12.6425 14.6587 10.5387 12.6239 7.90625 12.4883C4.75625 12.3156 2 15.1889 2 18.6418C2 22.0947 4.475 24.8077 7.625 24.8077C10.3925 24.8077 12.6312 22.7236 13.1375 19.875H17.8625C18.3575 22.625 20.4613 24.6597 23.0938 24.7953C26.2437 24.9557 29 22.0947 29 18.6295C29 15.1889 26.525 12.4759 23.375 12.4759ZM8.75 19.875H10.7975C10.325 21.3918 8.9975 22.44 7.4 22.329C5.72375 22.218 4.32875 20.6642 4.25 18.8145C4.17125 16.6564 5.67875 14.9423 7.625 14.9423C9.12125 14.9423 10.3475 15.9658 10.7975 17.4086H8.75C8.13125 17.4086 7.625 17.9636 7.625 18.6418C7.625 19.3201 8.13125 19.875 8.75 19.875ZM17.8625 17.4086H16.2875L15.4663 14.9423H18.875C18.38 15.6575 18.02 16.4838 17.8625 17.4086ZM23.24 22.3413C21.5075 22.2673 20.045 20.6519 20 18.7405C19.9775 17.5566 20.4387 16.5208 21.1812 15.8302L21.8788 17.9266C22.0925 18.5678 22.7338 18.9008 23.3188 18.6665C23.9038 18.4322 24.2075 17.7293 23.9937 17.088L23.285 14.9546L23.2963 14.9423C23.7473 14.9254 24.1968 15.0089 24.6176 15.1878C25.0384 15.3666 25.4217 15.6371 25.7445 15.9828C26.0673 16.3286 26.3228 16.7425 26.4956 17.1995C26.6684 17.6565 26.755 18.1471 26.75 18.6418C26.75 20.7629 25.1975 22.4153 23.24 22.3413Z" fill="url(#paint0_linear_202_178)"/>
</g>
<defs>
<linearGradient id="paint0_linear_202_178" x1="15.5" y1="5.0769" x2="15.5" y2="24.8077" gradientUnits="userSpaceOnUse">
<stop stop-color="#FFB60D"/>
<stop offset="1" stop-color="#E59317"/>
</linearGradient>
<clipPath id="clip0_202_178">
<rect width="32" height="32" fill="white"/>
</clipPath>
</defs>
</svg>
